# xmcd
#
# Track frame offsets: 
#        150
#        7956
#        21134
#        28652
#        42023
#        54455
#        69978
#        85416
#        98391
#        116230
#        130200
#        142516
#
# Disc length: 2058 seconds
#
# Revision: 0
# Processed by: cddbd v1.5.2PL0 Copyright (c) Steve Scherf et al.
# Submitted via: ExactAudioCopy v1.1
#
DISCID=8b08080c
DTITLE=Johnny Cash - The Very Best Prison Recordings
DYEAR=2012
DGENRE=Country
TTITLE0=I Got Stripes
TTITLE1=The Prisoner's Song
TTITLE2=The Wall
TTITLE3=25 Minutes To Go
TTITLE4=San Quentin
TTITLE5=Starkville City Jail
TTITLE6=Jacob Green
TTITLE7=Orleans Parrish Prison
TTITLE8=City Jail
TTITLE9=Folsom Prison Blues
TTITLE10=Give My Love To Rose
TTITLE11=Greystone Chapel
EXTD=
EXTT0=
EXTT1=
EXTT2=
EXTT3=
EXTT4=
EXTT5=
EXTT6=
EXTT7=
EXTT8=
EXTT9=
EXTT10=
EXTT11=
PLAYORDER=
